<svg xmlns="http://www.w3.org/2000/svg" viewBox="0 0 512 512">
  <defs>
    <linearGradient id="bg" x1="0" y1="0" x2="1" y2="1">
      <stop offset="0%" stop-color="#ffd4e3"/>
      <stop offset="100%" stop-color="#e8d5f5"/>
    </linearGradient>
  </defs>

  <!-- 배경 (둥근 사각형) -->
  <rect width="512" height="512" rx="110" fill="url(#bg)"/>

  <!-- 왼쪽 귀 -->
  <g transform="rotate(-10 168 165)">
    <ellipse cx="168" cy="165" rx="46" ry="108" fill="#fff" stroke="#e8b8c8" stroke-width="7"/>
    <ellipse cx="168" cy="165" rx="22" ry="74" fill="#ffc8d8"/>
  </g>

  <!-- 오른쪽 귀 -->
  <g transform="rotate(10 344 165)">
    <ellipse cx="344" cy="165" rx="46" ry="108" fill="#fff" stroke="#e8b8c8" stroke-width="7"/>
    <ellipse cx="344" cy="165" rx="22" ry="74" fill="#ffc8d8"/>
  </g>

  <!-- 리본 (오른쪽 귀) -->
  <path d="M356 112 Q332 94 332 120 Q332 146 356 132 Z" fill="#ff8fb8"/>
  <path d="M384 112 Q408 94 408 120 Q408 146 384 132 Z" fill="#ff8fb8"/>
  <circle cx="370" cy="122" r="12" fill="#f06aa0"/>

  <!-- 얼굴 -->
  <circle cx="256" cy="334" r="155" fill="#fff" stroke="#e8b8c8" stroke-width="7"/>

  <!-- 볼터치 -->
  <ellipse cx="150" cy="380" rx="30" ry="18" fill="#ffb8cc" opacity=".75"/>
  <ellipse cx="362" cy="380" rx="30" ry="18" fill="#ffb8cc" opacity=".75"/>

  <!-- 눈 -->
  <ellipse cx="208" cy="312" rx="13" ry="20" fill="#5a4658"/>
  <ellipse cx="304" cy="312" rx="13" ry="20" fill="#5a4658"/>
  <circle cx="213" cy="304" r="5" fill="#fff"/>
  <circle cx="309" cy="304" r="5" fill="#fff"/>

  <!-- 코 -->
  <ellipse cx="256" cy="350" rx="9" ry="6" fill="#ff9bb8"/>

  <!-- 입 -->
  <path d="M232 364 Q256 382 280 364" stroke="#5a4658" stroke-width="6.5" fill="none" stroke-linecap="round"/>
</svg>
